<svg width="96" height="96" viewBox="0 0 96 96" fill="none" xmlns="http://www.w3.org/2000/svg">
  <circle cx="36" cy="35" r="17" fill="#FFD55A"/>
  <g stroke="#FFD55A" stroke-width="5" stroke-linecap="round">
    <path d="M36 8v8"/>
    <path d="M12 35h8"/>
    <path d="m19 18 6 6"/>
    <path d="m53 18-6 6"/>
  </g>
  <path d="M28 73h39c10 0 18-7 18-16s-8-16-18-16h-1c-4-9-13-15-24-15-13 0-24 10-25 23-7 1-12 6-12 12 0 7 6 12 23 12Z" fill="#F8FAFF"/>
  <path d="M28 73h39c10 0 18-7 18-16 0-1 0-2-.2-3-4 7-11 11-20 11H27c-9 0-16-2-20-6-.3 1-.5 2-.5 3 0 7 6 11 21.5 11Z" fill="#DDE5F0"/>
</svg>
