<svg width="96" height="96" viewBox="0 0 96 96" fill="none" xmlns="http://www.w3.org/2000/svg">
  <path d="M43 42c-15 0-24-9-24-24 0-3 1-6 2-9C11 14 5 25 5 37c0 13 11 24 24 24 10 0 19-6 23-15-3 1-6 2-9 2Z" fill="#F5F1C8"/>
  <path d="M28 75h39c10 0 18-7 18-16s-8-16-18-16h-1c-4-9-13-15-24-15-13 0-24 10-25 23-7 1-12 6-12 12 0 7 6 12 23 12Z" fill="#F8FAFF"/>
  <path d="M28 75h39c10 0 18-7 18-16 0-1 0-2-.2-3-4 7-11 11-20 11H27c-9 0-16-2-20-6-.3 1-.5 2-.5 3 0 7 6 11 21.5 11Z" fill="#DDE5F0"/>
</svg>
