<svg width="96" height="96" viewBox="0 0 96 96" fill="none" xmlns="http://www.w3.org/2000/svg">
  <path d="M25 59h44c11 0 20-8 20-18s-9-18-20-18h-2C62 14 52 8 40 8 25 8 13 19 12 34 5 36 1 41 1 47c0 8 8 12 24 12Z" fill="#F8FAFF"/>
  <path d="M25 59h44c11 0 20-8 20-18 0-1-.1-3-.4-4-5 7-13 11-23 11H24c-10 0-18-2-23-7v6c0 8 8 12 24 12Z" fill="#DCE4EE"/>
  <g stroke="#58D4FF" stroke-width="5" stroke-linecap="round">
    <path d="m28 70-5 11"/>
    <path d="m46 70-5 11"/>
    <path d="m64 70-5 11"/>
  </g>
</svg>
