<svg width="96" height="96" viewBox="0 0 96 96" fill="none" xmlns="http://www.w3.org/2000/svg">
  <path d="M25 56h44c11 0 20-8 20-18s-9-18-20-18h-2C62 11 52 5 40 5 25 5 13 16 12 31 5 33 1 38 1 44c0 8 8 12 24 12Z" fill="#F8FAFF"/>
  <path d="M25 56h44c11 0 20-8 20-18 0-1-.1-3-.4-4-5 7-13 11-23 11H24c-10 0-18-2-23-7v6c0 8 8 12 24 12Z" fill="#BFC9D7"/>
  <path d="M43 55 31 77h13l-5 14 22-27H48l7-9H43Z" fill="#FFD74A"/>
  <path d="M31 61 20 82" stroke="#58D4FF" stroke-width="4" stroke-linecap="round"/>
  <path d="M71 61 60 82" stroke="#58D4FF" stroke-width="4" stroke-linecap="round"/>
</svg>
